<svg width="82" height="13" viewBox="0 0 82 13" fill="none" xmlns="http://www.w3.org/2000/svg">
<path d="M8.704 0.832V2.64H5.728V12H3.488V2.64H0.512V0.832H8.704ZM16.2724 12.112C15.227 12.112 14.267 11.8667 13.3924 11.376C12.5177 10.8853 11.8244 10.208 11.3124 9.344C10.8004 8.46933 10.5444 7.48267 10.5444 6.384C10.5444 5.296 10.8004 4.32 11.3124 3.456C11.8244 2.58133 12.5177 1.89867 13.3924 1.408C14.267 0.917333 15.227 0.672 16.2724 0.672C17.3284 0.672 18.2884 0.917333 19.1524 1.408C20.027 1.89867 20.715 2.58133 21.2164 3.456C21.7284 4.32 21.9844 5.296 21.9844 6.384C21.9844 7.48267 21.7284 8.46933 21.2164 9.344C20.715 10.208 20.027 10.8853 19.1524 11.376C18.2777 11.8667 17.3177 12.112 16.2724 12.112ZM16.2724 10.112C16.9444 10.112 17.5364 9.96267 18.0484 9.664C18.5604 9.35467 18.9604 8.91733 19.2484 8.352C19.5364 7.78667 19.6804 7.13067 19.6804 6.384C19.6804 5.63733 19.5364 4.98667 19.2484 4.432C18.9604 3.86667 18.5604 3.43467 18.0484 3.136C17.5364 2.83733 16.9444 2.688 16.2724 2.688C15.6004 2.688 15.003 2.83733 14.4804 3.136C13.9684 3.43467 13.5684 3.86667 13.2804 4.432C12.9924 4.98667 12.8484 5.63733 12.8484 6.384C12.8484 7.13067 12.9924 7.78667 13.2804 8.352C13.5684 8.91733 13.9684 9.35467 14.4804 9.664C15.003 9.96267 15.6004 10.112 16.2724 10.112ZM29.5849 12.112C28.5395 12.112 27.5795 11.8667 26.7049 11.376C25.8302 10.8853 25.1369 10.208 24.6249 9.344C24.1129 8.46933 23.8569 7.48267 23.8569 6.384C23.8569 5.296 24.1129 4.32 24.6249 3.456C25.1369 2.58133 25.8302 1.89867 26.7049 1.408C27.5795 0.917333 28.5395 0.672 29.5849 0.672C30.6409 0.672 31.6009 0.917333 32.4649 1.408C33.3395 1.89867 34.0275 2.58133 34.5289 3.456C35.0409 4.32 35.2969 5.296 35.2969 6.384C35.2969 7.48267 35.0409 8.46933 34.5289 9.344C34.0275 10.208 33.3395 10.8853 32.4649 11.376C31.5902 11.8667 30.6302 12.112 29.5849 12.112ZM29.5849 10.112C30.2569 10.112 30.8489 9.96267 31.3609 9.664C31.8729 9.35467 32.2729 8.91733 32.5609 8.352C32.8489 7.78667 32.9929 7.13067 32.9929 6.384C32.9929 5.63733 32.8489 4.98667 32.5609 4.432C32.2729 3.86667 31.8729 3.43467 31.3609 3.136C30.8489 2.83733 30.2569 2.688 29.5849 2.688C28.9129 2.688 28.3155 2.83733 27.7929 3.136C27.2809 3.43467 26.8809 3.86667 26.5929 4.432C26.3049 4.98667 26.1609 5.63733 26.1609 6.384C26.1609 7.13067 26.3049 7.78667 26.5929 8.352C26.8809 8.91733 27.2809 9.35467 27.7929 9.664C28.3155 9.96267 28.9129 10.112 29.5849 10.112ZM39.9534 10.224H43.6334V12H37.7134V0.832H39.9534V10.224ZM52.6096 10.224H56.2896V12H50.3696V0.832H52.6096V10.224ZM60.7034 0.832V12H58.4634V0.832H60.7034ZM67.5225 12.112C66.7438 12.112 66.0398 11.9787 65.4105 11.712C64.7918 11.4453 64.3012 11.0613 63.9385 10.56C63.5758 10.0587 63.3892 9.46667 63.3785 8.784H65.7785C65.8105 9.24267 65.9705 9.60533 66.2585 9.872C66.5572 10.1387 66.9625 10.272 67.4745 10.272C67.9972 10.272 68.4078 10.1493 68.7065 9.904C69.0052 9.648 69.1545 9.31733 69.1545 8.912C69.1545 8.58133 69.0532 8.30933 68.8505 8.096C68.6478 7.88267 68.3918 7.71733 68.0825 7.6C67.7838 7.472 67.3678 7.33333 66.8345 7.184C66.1092 6.97067 65.5172 6.76267 65.0585 6.56C64.6105 6.34667 64.2212 6.032 63.8905 5.616C63.5705 5.18933 63.4105 4.624 63.4105 3.92C63.4105 3.25867 63.5758 2.68267 63.9065 2.192C64.2372 1.70133 64.7012 1.328 65.2985 1.072C65.8958 0.805333 66.5785 0.672 67.3465 0.672C68.4985 0.672 69.4318 0.954666 70.1465 1.52C70.8718 2.07467 71.2718 2.85333 71.3465 3.856H68.8825C68.8612 3.472 68.6958 3.15733 68.3865 2.912C68.0878 2.656 67.6878 2.528 67.1865 2.528C66.7492 2.528 66.3972 2.64 66.1305 2.864C65.8745 3.088 65.7465 3.41333 65.7465 3.84C65.7465 4.13867 65.8425 4.38933 66.0345 4.592C66.2372 4.784 66.4825 4.944 66.7705 5.072C67.0692 5.18933 67.4852 5.328 68.0185 5.488C68.7438 5.70133 69.3358 5.91467 69.7945 6.128C70.2532 6.34133 70.6478 6.66133 70.9785 7.088C71.3092 7.51467 71.4745 8.07467 71.4745 8.768C71.4745 9.36533 71.3198 9.92 71.0105 10.432C70.7012 10.944 70.2478 11.3547 69.6505 11.664C69.0532 11.9627 68.3438 12.112 67.5225 12.112ZM81.7665 0.832V2.64H78.7905V12H76.5505V2.64H73.5745V0.832H81.7665Z" fill="#BCA4FF"/>
</svg>
